<svg xmlns="http://www.w3.org/2000/svg" width="1024" height="1024" viewBox="0.0 0.0 1024.0 1024.0"><g id="technology"><path id="27" d="M 512.748,804.082 C 512.577,803.911 494.844,803.552 484.586,803.512 C 481.470,803.500 478.692,803.631 478.413,803.804 C 478.134,803.976 477.420,803.871 476.827,803.571 C 475.866,803.082 473.200,802.824 458.250,801.772 C 456.050,801.617 452.150,801.249 449.583,800.954 C 447.016,800.659 444.787,800.546 444.629,800.704 C 444.471,800.862 444.096,800.790 443.796,800.543 C 443.067,799.946 440.466,799.764 439.368,800.234 C 438.869,800.448 438.185,800.361 437.789,800.033 C 437.406,799.714 435.862,799.383 434.360,799.296 C 432.857,799.210 431.322,798.948 430.948,798.717 C 430.574,798.486 429.926,798.244 429.509,798.179 C 427.987,797.942 424.211,796.835 422.675,796.176 C 421.808,795.804 420.796,795.496 420.425,795.491 C 420.053,795.487 418.873,794.594 417.803,793.507 C 416.731,792.420 415.646,791.659 415.390,791.817 C 414.800,792.183 412.500,790.052 412.500,789.139 C 412.500,788.761 411.891,787.888 411.147,787.198 C 410,786.136 409.885,785.799 410.389,784.992 C 410.877,784.211 410.829,783.952 410.116,783.544 C 409.349,783.105 409.464,782.870 411.125,781.487 C 412.156,780.630 413,779.506 413,778.993 C 413,777.788 413.596,777.448 416.024,777.267 C 417.113,777.186 418.284,776.895 418.627,776.622 C 420.481,775.143 422.528,774.480 423.552,775.028 C 424.418,775.491 424.719,775.409 425.326,774.543 C 426.104,773.432 427.725,773.150 428.270,774.033 C 428.492,774.391 428.868,774.335 429.425,773.859 C 430.345,773.071 434.440,771.851 435.541,772.038 C 435.930,772.104 436.587,772.030 437,771.874 C 439.427,770.953 443.304,770.441 447.719,770.456 C 454.504,770.479 457.478,770.222 458.144,769.557 C 458.889,768.812 461.647,768.847 462.413,769.612 C 462.865,770.065 463.253,770.082 463.901,769.678 C 464.382,769.378 467.005,769.090 469.729,769.039 C 472.453,768.988 474.853,768.841 475.063,768.711 C 476.069,768.090 529.891,767.065 530.837,767.649 C 531.067,767.792 532.453,767.691 533.916,767.424 C 535.836,767.076 536.771,767.102 537.277,767.522 C 537.715,767.886 540.553,768.152 544.864,768.234 C 548.651,768.306 552.087,768.491 552.500,768.646 C 552.913,768.801 555.812,769.179 558.944,769.487 C 562.077,769.794 564.777,770.072 564.944,770.102 C 565.112,770.134 565.659,769.981 566.159,769.763 C 566.667,769.542 567.549,769.606 568.159,769.907 C 568.759,770.203 570.600,770.701 572.250,771.013 C 573.900,771.324 576.234,771.823 577.436,772.121 C 578.639,772.420 581.001,772.730 582.686,772.810 C 586.694,773.001 589.598,773.496 590.376,774.121 C 590.721,774.398 591.620,774.501 592.376,774.351 C 593.183,774.191 594.150,774.371 594.721,774.788 C 595.255,775.179 596.295,775.500 597.034,775.500 C 598.605,775.500 601.779,776.737 602.277,777.543 C 602.476,777.866 603.236,777.978 604.081,777.809 C 605.753,777.475 607.009,778.068 609.532,780.385 C 610.692,781.451 611.728,781.974 612.501,781.885 C 613.298,781.794 613.869,782.101 614.239,782.822 C 614.541,783.411 615.072,784.235 615.419,784.652 C 615.092,784.578 616.456,789.198 617.215,787.943 C 617.572,788.521 616.183,789.672 612.996,790.500 C 612.512,790.500 611.735,791.080 608.585,793.550 C 608.259,794.072 607.444,794.500 603.765,795.298 C 603.014,795.110 602.342,795.345 601.742,796.008 C 601.249,796.553 600.303,797 599.639,797 C 598.976,797 597.992,797.236 597.452,797.525 C 596.913,797.814 595.072,798.126 593.361,798.218 C 591.650,798.310 589.125,798.652 587.750,798.977 C 586.375,799.303 583,799.771 580.250,800.019 C 577.500,800.266 573.562,800.711 571.500,801.005 C 569.438,801.299 566.665,801.630 565.340,801.739 C 564.014,801.847 562.608,802.203 562.215,802.529 C 561.725,802.936 561.303,802.963 560.875,802.615 C 560.457,802.275 559.422,802.269 557.750,802.597 C 556.375,802.867 554.125,803.152 552.750,803.229 C 551.375,803.306 550.138,803.430 550,803.505 C 549.862,803.580 546.487,803.710 542.500,803.793 C 538.513,803.876 534.078,804.063 532.645,804.208 C 531.213,804.352 529.910,804.260 529.751,804.001 C 529.591,803.744 528.851,803.653 528.106,803.798 C 526.593,804.095 513.010,804.346 512.748,804.082" stroke="#ECECEC" fill="#ECECEC" stroke-width="1" />
  </g><g id="circuits"><path id="24" d="M 480,681.332 C 466.521,674.063 454.827,666.228 444.750,657.714 C 439.382,653.178 432.450,646.500 433.109,646.500 C 433.291,646.500 436.195,647.173 439.563,647.995 C 457.158,652.292 473.027,650.356 486.629,642.253 C 489.445,640.576 489.659,640.524 490.315,641.361 C 495.788,648.360 503.485,660.081 507.216,667.097 C 507.216,667.097 510.058,672.443 510.058,672.443 C 510.058,672.443 508.154,672.732 508.154,672.732 C 501.268,673.777 493.195,677.819 488.774,682.436 C 487.687,683.571 486.562,684.485 486.274,684.466 C 485.986,684.448 483.163,683.038 480,681.332" stroke="#FDFDFD" fill="#FDFDFD" stroke-width="1" />
  <path id="25" d="M 504,740.042 C 496.776,738.045 490.872,734.251 486.587,728.850 C 483.841,725.389 481.022,720.033 479.955,716.250 C 479.174,713.480 478.989,703.068 479.661,699.673 C 479.661,699.673 480.072,697.595 480.072,697.595 C 480.072,697.595 474.661,694.872 474.661,694.872 C 458.406,686.692 438.398,672.395 426.220,660.260 C 401.154,635.279 384.211,606.016 375.844,573.250 C 372.966,561.974 369.978,543.562 370.015,537.317 C 371.020,537.977 373.193,540.795 373.654,539.750 C 373.982,540.300 374.378,541.200 376.500,543.019 C 376.500,543.518 379.385,545 381.006,546 C 382.052,546 383,547.417 383,548.980 C 383,550.679 384.088,551.464 385.183,550.556 C 385.729,550.102 386.017,550.996 386.735,555.375 C 389.762,573.833 397.953,596.534 407.245,612.223 C 410.205,617.220 414.990,624.439 417.646,627.914 C 419.390,630.197 420.404,630.925 424.716,632.994 C 435.983,638.398 444.575,640.500 455.399,640.500 C 465.499,640.500 472.714,638.905 480.641,634.922 C 482.750,633.862 483.426,633.283 483.141,632.779 C 482.392,631.459 474.038,622.221 469.806,618.034 C 469.806,618.034 465.545,613.817 465.545,613.817 C 465.545,613.817 463.147,615.116 463.147,615.116 C 457.865,617.979 454.347,618.753 446.750,618.721 C 440.454,618.696 439.379,618.559 436.065,617.356 C 424.226,613.059 416.721,604.931 414.221,593.695 C 413.117,588.730 413.443,580.063 414.889,575.989 C 416.100,572.572 418.029,568.774 421.067,567.188 C 420.818,567.497 420.459,568.481 420.268,569.375 C 420.529,571.885 422.614,574.263 422.500,574.991 C 422.500,575.504 423.050,576.576 423.721,577.374 C 424.780,578.633 424.929,579.273 424.848,582.204 C 424.776,584.798 424.939,585.718 425.551,586.167 C 425.990,586.487 426.514,587.875 426.717,589.250 C 427.614,595.344 432.445,601.624 438.373,604.402 C 440.928,605.599 441.841,605.750 446.526,605.750 C 451.622,605.750 451.935,605.686 455.619,603.864 C 458.135,602.620 460.125,601.194 461.461,599.676 C 465.488,595.101 467.512,588.494 466.524,583.149 C 465.880,579.664 465.878,579.500 466.500,579.500 C 466.843,586.333 471.143,585.953 473.103,588.500 C 471.387,588.500 470.342,589.506 470.805,590.712 C 471.096,591.470 471.221,591.452 472.083,590.526 C 473.558,588.943 473.988,589.288 473.767,591.875 C 473.647,593.268 473.335,594.196 473.012,594.118 C 472.262,593.939 470.500,594.920 470.500,595.518 C 470.500,595.783 470.899,596 471.389,596 C 471.877,596 473.379,596.969 474.725,598.154 C 474.725,598.154 477.173,600.308 477.173,600.308 C 477.173,600.308 476.005,602.384 476.005,602.384 C 476.005,602.384 474.839,604.460 474.839,604.460 C 474.839,604.460 480.055,610.105 480.055,610.105 C 498.375,629.928 509.198,644.361 517.007,659.381 C 518.188,661.653 519.240,663.427 519.343,663.323 C 519.685,662.981 522.502,652.896 524.461,645 C 528.076,630.427 530.105,617.117 531.090,601.516 C 531.420,596.283 531.841,592 532.024,592 C 532.393,592 533,597.039 533,600.093 C 533,601.312 533.409,602.595 534.094,603.520 C 537.588,605.509 535.365,601.426 537.189,603.943 C 537.843,604.558 538.350,605.425 538.314,605.870 C 538.277,606.348 538.764,606.808 539.500,606.990 C 540.589,607.260 540.750,607.573 540.750,609.426 C 540.750,611.093 541.013,611.750 541.969,612.474 C 542.639,612.981 543.500,613.277 543.880,613.131 C 544.413,612.926 544.508,613.250 544.296,614.558 C 544.145,615.489 543.783,618.050 543.490,620.250 C 543.197,622.450 542.836,624.878 542.685,625.645 C 542.427,626.962 542.491,627.023 543.831,626.709 C 547.955,625.743 555.710,621.426 560.654,617.343 C 562.199,616.067 563.231,615.530 563.541,615.841 C 563.851,616.152 563.663,616.651 563.012,617.240 C 562.456,617.743 562,618.554 562,619.043 C 556.464,620.415 566.052,621.964 562,625.224 C 562,625.555 561.449,626.343 560.776,626.976 C 560.103,627.608 559.415,628.750 559.247,629.514 C 558.998,630.648 558.188,631.284 554.846,632.967 C 552.593,634.102 548.519,635.870 545.793,636.898 C 545.793,636.898 540.836,638.764 540.836,638.764 C 540.836,638.764 538.732,647.257 538.732,647.257 C 536.161,657.635 534.500,663.582 532.198,670.658 C 531.230,673.631 530.509,676.255 530.594,676.487 C 530.679,676.720 532.543,678.192 534.734,679.760 C 534.734,679.760 538.716,682.612 538.716,682.612 C 538.716,682.612 541.734,680.985 541.734,680.985 C 546.389,678.474 556.966,671.434 563.530,666.477 C 566.791,664.014 569.565,662 569.694,662 C 569.823,662 570.297,663.266 570.747,664.814 C 571.375,666.973 572.148,668.196 574.066,670.064 C 575.442,671.404 576.928,672.500 577.370,672.500 C 580.046,672.500 564.121,684.354 550.851,692.240 C 547.135,694.448 546.026,695.345 546.260,695.951 C 548.472,701.679 548.484,710.781 546.285,717.245 C 542.237,729.148 533.528,737.199 521.468,740.187 C 516.981,741.298 508.287,741.226 504,740.042M 517.601,727.438 C 526.776,725.489 533.676,717.797 534.360,708.756 C 534.847,702.320 532.685,696.759 527.933,692.227 C 521.175,685.780 512.043,684.380 503.664,688.505 C 499.617,690.497 496.461,693.691 494.399,697.880 C 492.832,701.062 492.750,701.503 492.764,706.740 C 492.782,713.705 493.846,716.697 497.838,721.009 C 502.997,726.581 510.358,728.976 517.601,727.438M 488.774,682.436 C 493.195,677.819 501.268,673.777 508.154,672.732 C 508.154,672.732 510.058,672.443 510.058,672.443 C 510.058,672.443 507.216,667.097 507.216,667.097 C 503.485,660.081 495.788,648.360 490.315,641.361 C 489.659,640.524 489.445,640.576 486.629,642.253 C 473.027,650.356 457.158,652.292 439.563,647.995 C 436.195,647.173 433.291,646.500 433.109,646.500 C 432.450,646.500 439.382,653.178 444.750,657.714 C 454.827,666.228 466.521,674.063 480,681.332 C 483.163,683.038 485.986,684.448 486.274,684.466 C 486.562,684.485 487.687,683.571 488.774,682.436" stroke="#1A227B" fill="#1A227B" stroke-width="1" />
  <path id="30" d="M 637.289,455.064 C 637.097,454.753 636.531,454.500 636.029,454.500 C 634.607,454.500 630.759,450.560 628.948,447.250 C 627.104,443.879 624.002,439.831 623.583,440.250 C 623.433,440.401 622.566,438.325 621.659,435.637 C 615.772,418.207 606.654,400.140 596.730,386.241 C 584.280,368.807 568.058,352.765 549.627,339.666 C 544.363,335.925 536.551,330.955 532.877,329.010 C 532.877,329.010 530.534,327.770 530.534,327.770 C 530.534,327.770 528.893,329.336 528.893,329.336 C 524.206,333.804 517.095,336.500 509.999,336.500 C 509.999,336.500 505.550,336.500 505.550,336.500 C 505.550,336.500 503.755,342.051 503.755,342.051 C 498.411,358.586 495.572,375.978 495.442,393 C 495.406,397.661 495.229,400.152 495,399.250 C 494.625,397.776 494.616,397.784 494.481,399.750 C 494.404,400.850 494.385,402.087 494.436,402.500 C 494.488,402.913 494.529,405.007 494.527,407.155 C 494.526,410.332 494.327,411.339 490.106,413.550 C 488.764,414.388 487.500,413.780 487.500,412.295 C 487.500,411.615 487.281,410.924 487.014,410.759 C 486.747,410.594 486.085,409.455 485.543,408.229 C 485,407.003 484.234,406 483.841,406 C 482.934,406 482.539,404.068 482.154,397.750 C 481.986,395 481.631,392.608 481.364,392.433 C 481.052,392.229 481.103,388.452 481.505,381.853 C 481.505,381.853 482.132,371.591 482.132,371.591 C 482.132,371.591 479.195,367.420 479.195,367.420 C 475.363,361.979 469.983,355.603 465.612,351.318 C 465.612,351.318 462.111,347.887 462.111,347.887 C 462.111,347.887 458.680,349.295 458.680,349.295 C 455.860,350.452 454.495,350.704 451,350.715 C 445.671,350.732 442.305,349.315 438.067,345.273 C 433.197,340.628 431.286,335.123 432.091,328.050 C 433.067,319.478 439.943,312.584 449.111,310.988 C 454.804,309.996 460.853,311.951 465.478,316.277 C 471.628,322.031 473.402,329.813 470.491,338.274 C 470.491,338.274 469.500,341.156 469.500,341.156 C 469.500,341.156 474.149,345.953 474.149,345.953 C 476.705,348.591 479.996,352.278 481.461,354.146 C 482.926,356.014 484.255,357.412 484.413,357.253 C 484.572,357.094 485.118,354.891 485.625,352.357 C 486.133,349.823 487.798,343.985 489.326,339.384 C 489.326,339.384 492.104,331.017 492.104,331.017 C 492.104,331.017 489.147,328.105 489.147,328.105 C 485.692,324.704 483.050,320.556 481.437,316 C 479.890,311.632 479.760,302.204 481.188,298 C 484.568,288.052 492.247,280.653 502.250,277.705 C 506.517,276.449 514.199,276.556 518.500,277.933 C 526.247,280.413 533.177,286.299 536.496,293.219 C 539,298.438 539.683,302.121 539.350,308.589 C 539.204,311.428 539.009,314.165 538.917,314.673 C 538.788,315.387 540.273,316.514 545.500,319.673 C 557.477,326.908 568.369,335.104 579.857,345.529 C 608.755,371.752 628.968,405.284 639.415,444.339 C 640.614,448.818 640.776,449.979 640.232,450.188 C 639.757,450.370 639.640,450.978 639.842,452.224 C 640.071,453.632 639.967,454 639.341,454 C 638.905,454 638.345,454.366 638.094,454.814 C 637.783,455.370 637.528,455.450 637.289,455.064M 455.490,339.375 C 458.868,337.649 460.647,335.086 460.876,331.618 C 461.375,324.036 453.868,318.707 447.500,322.120 C 444.547,323.704 442.562,326.559 442.195,329.753 C 441.951,331.868 442.127,332.668 443.346,334.983 C 444.517,337.207 445.281,337.975 447.450,339.108 C 450.678,340.795 452.588,340.858 455.490,339.375M 512.783,322.462 C 516.266,321.829 519.034,320.324 521.601,317.666 C 528.958,310.046 526.462,297.166 516.673,292.237 C 514.165,290.974 513.182,290.765 509.750,290.765 C 504.990,290.764 502.255,291.823 498.812,294.996 C 495.329,298.207 494.264,300.837 494.257,306.250 C 494.251,310.166 494.430,311.118 495.640,313.580 C 496.404,315.137 497.913,317.209 498.993,318.183 C 502.003,320.904 504.267,321.926 509.533,322.945 C 509.688,322.975 511.151,322.757 512.783,322.462" stroke="#28A542" fill="#28A542" stroke-width="1" />
  <path id="62" d="M 543.619,592.338 C 543.634,590.505 543.298,588.500 542.977,588.500 C 542.810,588.500 542.765,587.869 542.879,587.096 C 543.009,586.215 542.788,585.447 542.287,585.030 C 542.107,584.331 541.497,581.062 541.199,581.500 C 541.704,581.500 538.985,577.833 537.935,577.098 C 534.288,575.344 538.674,580.195 537.625,579.423 C 535.532,579.638 534.788,579.503 534.061,578.775 C 534.767,578.028 533.083,574.906 532.500,573.250 C 532.225,573.080 531.997,571.773 531.993,570.346 C 531.985,567.021 531.524,565.159 530.994,564.246 C 531.307,564.439 531.389,563.670 531.217,562.151 C 530.701,557.572 530.447,556.473 529.975,556.765 C 529.713,556.927 529.500,556.505 529.500,555.827 C 529.500,554.115 526.986,539.388 526.566,538.636 C 525.779,537.230 510.989,527.301 505.539,524.520 C 503.625,523.543 503.083,523.467 501.482,523.947 C 496.308,525.497 491.571,524.061 488.786,520.099 C 486.771,517.231 486.363,512.202 487.902,509.207 C 492.151,500.943 503.280,500.933 507.630,509.188 C 508.448,510.739 508.707,512.069 508.676,514.555 C 508.676,514.555 508.635,517.860 508.635,517.860 C 508.635,517.860 513.120,520.055 513.120,520.055 C 515.587,521.262 518.865,523.085 520.405,524.106 C 521.945,525.127 523.296,525.870 523.408,525.759 C 523.694,525.472 520.346,514.962 517.494,507.197 C 510.260,487.502 499.774,467.147 489.835,453.505 C 488.372,451.496 487.700,450.183 488.074,450.059 C 488.405,449.949 489.066,450.340 489.543,450.929 C 490.030,451.531 490.985,452 491.721,452 C 492.442,452 493.161,452.337 493.319,452.750 C 493.515,453.260 494.314,453.500 495.820,453.500 C 497.519,453.500 498.115,453.717 498.391,454.435 C 498.589,454.949 499.481,455.981 500.375,456.729 C 501.269,457.477 502,458.406 502,458.795 C 502,459.881 502.798,459.632 503.692,458.267 C 504.721,456.697 504.719,455.520 503.684,454.764 C 502.930,454.212 502.930,454.071 503.695,452.904 C 504.150,452.209 504.390,451.295 504.228,450.871 C 504.065,450.447 504.148,449.967 504.413,449.804 C 504.806,449.561 512.069,461.324 518.195,472.125 C 518.936,473.431 519.702,474.499 519.896,474.498 C 520.289,474.495 525.312,466.726 527.582,462.608 C 528.946,460.137 530.413,459.411 529.736,461.542 C 529.567,462.077 529.668,462.500 529.966,462.500 C 530.645,462.500 530.659,464.767 529.989,466.022 C 529.630,466.692 529.654,467.317 530.067,468.113 C 530.390,468.738 530.824,469.587 531.031,470 C 531.705,470.575 533.856,471.370 534.167,470.161 C 534.588,469.345 535.287,468.385 535.717,468.027 C 538.635,465.606 533.811,474.618 528.073,482.308 C 528.073,482.308 524.896,486.567 524.896,486.567 C 524.896,486.567 527.981,494.281 527.981,494.281 C 534.260,509.988 537.976,522.514 541.533,539.960 C 542.341,543.925 543.106,547.273 543.231,547.398 C 543.356,547.524 545.188,546.079 547.302,544.188 C 560.538,532.344 569.622,518.032 572.808,504 C 573.215,502.212 573.654,500.385 573.787,499.940 C 573.958,499.358 573.057,498.553 570.595,497.091 C 564.100,493.233 558.697,486.010 556.785,478.635 C 556.338,476.909 556,473.550 556,470.829 C 556,449.445 578.303,434.664 597.896,443.063 C 600.082,444 600.114,444.046 599.240,445.011 C 598.748,445.555 597.761,446.003 597.048,446.007 C 594.688,446.615 599.104,446.781 598,446.935 C 598,447.207 599.395,449.034 601.101,450.997 C 603.160,453.365 604.480,454.491 605.030,454.348 C 608.368,454.399 608.368,459.757 609.368,458.870 C 608.192,460.168 608.274,461.535 609.548,461.868 C 611.927,466.548 614.626,460.850 615.507,462.750 C 615.854,463.575 616.247,466.776 616.381,469.863 C 616.600,474.902 616.493,475.901 615.333,479.613 C 611.718,491.188 603.493,498.481 591.558,500.695 C 591.558,500.695 588.366,501.288 588.366,501.288 C 588.366,501.288 586.524,507.519 586.524,507.519 C 584.364,514.829 582.736,518.988 579.476,525.521 C 572.970,538.561 561.518,551.788 548.824,560.924 C 548.824,560.924 544.899,563.750 544.899,563.750 C 544.899,563.750 545.183,567.606 545.183,567.606 C 545.370,570.155 545.279,571.577 544.917,571.801 C 544.232,572.224 544.754,578.668 545.492,578.914 C 546.287,579.178 546.170,592.034 545.375,591.875 C 545.031,591.807 544.799,592.010 544.859,592.327 C 544.919,592.645 544.663,593.022 544.289,593.165 C 543.845,593.337 543.614,593.052 543.619,592.338M 592.537,486.532 C 596.172,485.151 599.062,482.557 601.020,478.917 C 602.572,476.033 602.725,475.371 602.736,471.500 C 602.745,468.123 602.514,466.745 601.614,464.790 C 599.886,461.039 597.409,458.361 593.917,456.467 C 590.962,454.865 590.448,454.752 586.250,454.771 C 582.343,454.789 581.402,454.973 579.107,456.163 C 575.353,458.111 572.746,460.649 571.140,463.920 C 569.942,466.358 569.753,467.339 569.771,471 C 569.797,476.052 570.812,478.734 574.016,482.209 C 576.637,485.053 578.575,486.267 582.040,487.233 C 585.264,488.133 588.976,487.885 592.537,486.532" stroke="#016D51" fill="#016D51" stroke-width="1" />
  <path id="63" d="M 626.210,604.146 C 625.682,603.753 624.913,603.226 624.779,601.047 C 624.587,600.736 625.151,599.572 626.033,598.459 C 627.228,596.949 627.491,596.291 627.067,595.867 C 626.755,595.556 626.500,594.807 626.500,594.203 C 626.500,592.896 625.159,592.245 621.085,593.375 C 621.249,595.331 620.970,596 619.990,596 C 619.143,596 619.034,595.779 619.308,594.625 C 619.489,593.869 619.957,592.688 620.350,592 C 620.835,591.152 620.924,590.376 620.631,589.585 C 620.308,588.716 620.736,586.807 622.313,582.085 C 623.476,578.601 625.221,572.630 626.189,568.817 C 627.158,565.003 628.074,561.759 628.227,561.606 C 628.380,561.453 629.645,561.592 631.040,561.914 C 632.435,562.236 635.471,562.500 637.788,562.500 C 641.972,562.500 642,562.509 642,563.779 C 642,567.420 636.587,585.753 632.486,596 C 628.787,605.245 628.385,605.766 626.210,604.146" stroke="#18547C" fill="#18547C" stroke-width="1" />
  <path id="29" d="M 502,458.795 C 502,458.406 501.269,457.477 500.375,456.729 C 499.481,455.981 498.589,454.949 498.391,454.435 C 498.115,453.717 497.519,453.500 495.820,453.500 C 494.314,453.500 493.515,453.260 493.319,452.750 C 493.159,452.331 492.415,452 491.636,452 C 490.800,452 490,451.614 489.639,451.038 C 489.309,450.508 488.615,450.002 488.098,449.913 C 487.581,449.824 485.266,447.387 482.954,444.500 C 475.310,434.954 458.267,418.240 448.663,410.869 C 446.965,409.566 445.373,408.500 445.125,408.500 C 444.877,408.500 444.144,409.065 443.495,409.755 C 442.779,410.519 442.188,410.805 441.991,410.486 C 441.791,410.161 440.385,410.740 438.303,412.005 C 434.207,414.493 432.736,415.084 430.623,415.093 C 429.729,415.097 428.885,415.281 428.748,415.503 C 428.318,416.199 426.548,415.455 426.838,414.700 C 426.986,414.315 427.026,413.983 426.928,413.962 C 426.830,413.940 425.186,413.808 423.275,413.668 C 420.423,413.459 419.692,413.560 419.197,414.238 C 418.677,414.949 418.297,414.983 416.452,414.487 C 415.275,414.170 412.759,413.031 410.861,411.955 C 407.264,409.918 406.198,409.568 406.793,410.625 C 406.986,410.969 406.087,410.238 404.793,409 C 401.481,405.830 399.046,401.961 397.416,397.278 C 394.910,390.080 395.601,380.998 399.167,374.258 C 401.170,370.474 406.082,365.245 409.659,363.089 C 418.933,357.503 430.670,357.293 439.594,362.555 C 445.883,366.264 450.327,371.756 452.514,378.525 C 453.793,382.482 454.166,389.328 453.359,394.026 C 453.359,394.026 452.969,396.302 452.969,396.302 C 452.969,396.302 455.718,398.276 455.718,398.276 C 457.231,399.361 458.440,400.475 458.405,400.750 C 458.584,401.221 458.584,405.742 459.130,405.565 C 459.746,405.892 461.118,407.143 462.180,408.345 C 463.612,409.966 464.274,410.396 464.740,410.009 C 467.374,408.795 465.011,413.283 465.173,413.230 C 465.433,413.909 465.952,414.062 467.494,413.915 C 469.551,413.719 470.394,414.406 469.361,415.439 C 468.502,415.526 471.914,417.560 471.756,416.995 C 472.830,416.103 472.675,415.210 471.250,414.089 C 470.562,413.548 470,412.819 468.716,409.622 C 468.923,409.418 472.333,412.567 476.296,416.621 C 480.258,420.675 483.500,423.767 483.500,423.493 C 483.500,423.218 483.166,420.769 482.757,418.050 C 482.034,413.238 481.005,399.650 481.002,394.875 C 480.998,390.365 481.849,392.517 482.187,397.875 C 482.603,404.481 482.912,406 483.837,406 C 484.233,406 485,407.003 485.543,408.229 C 486.085,409.455 486.747,410.594 487.014,410.759 C 487.281,410.924 487.500,411.615 487.500,412.295 C 487.500,413.780 488.764,414.388 493.464,412.551 C 494.327,411.339 494.526,410.332 494.527,407.155 C 494.529,405.007 494.488,402.913 494.436,402.500 C 494.385,402.087 494.401,400.850 494.471,399.750 C 494.471,399.750 494.601,397.750 494.601,397.750 C 494.601,397.750 495.007,399.500 495.007,399.500 C 495.230,400.462 495.671,404.175 495.987,407.750 C 497.033,419.579 499.482,432.048 503.015,443.534 C 504.557,448.546 504.705,451.798 503.461,453.297 C 502.889,453.986 502.917,454.202 503.644,454.734 C 504.716,455.519 504.733,456.680 503.692,458.267 C 502.798,459.632 502,459.881 502,458.795M 431.812,401.356 C 433.221,400.636 435.285,399.012 436.399,397.746 C 442.728,390.556 440.531,378.998 431.930,374.234 C 429.585,372.935 428.750,372.750 425.250,372.750 C 421.888,372.750 420.798,372.972 418.420,374.140 C 412.894,376.854 409.825,381.752 409.863,387.798 C 409.905,394.647 413.567,399.968 419.849,402.308 C 422.844,403.423 428.671,402.959 431.812,401.356" stroke="#097D44" fill="#097D44" stroke-width="1" />
  <path id="66" d="M 533.029,471.103 C 533.014,470.747 532.636,470.522 532.192,470.603 C 531.746,470.684 531.219,470.413 531.019,470 C 530.819,469.587 530.390,468.738 530.067,468.113 C 529.654,467.317 529.630,466.692 529.989,466.022 C 530.668,464.751 530.641,462.500 529.556,460.312 C 529.259,459.949 529.856,457.973 531.239,454.741 C 536.708,441.958 539.474,428.623 539.495,414.923 C 539.495,414.923 539.500,411.598 539.500,411.598 C 539.500,411.598 536.104,410.566 536.104,410.566 C 529.583,408.586 522.726,402.978 519.559,397.036 C 517.381,392.950 516.528,389.964 516.189,385.250 C 515.601,377.062 518.397,369.584 524.238,363.729 C 535.774,352.166 553.540,352.075 564.981,363.520 C 572.021,370.563 574.566,380.218 572.013,390.202 C 569.575,399.733 562.585,407.447 553.811,410.293 C 552.402,410.749 551.062,411.295 550.831,411.506 C 550.600,411.717 550.222,415.590 549.992,420.113 C 549.330,433.147 547.210,443.851 543.144,454.691 C 540.250,462.406 537.041,468.875 536.524,468.038 C 536.145,467.427 535.311,468.237 533.654,470.821 C 533.297,471.379 533.047,471.491 533.029,471.103M 549.972,400.547 C 558.123,398.010 563.739,389.673 562.790,381.518 C 562.388,378.050 560.182,373.258 557.752,370.568 C 551.963,364.161 540.681,363.164 533.696,368.443 C 528.342,372.490 526.227,377.202 526.598,384.259 C 526.880,389.625 528.452,392.922 532.533,396.700 C 537.387,401.194 543.535,402.550 549.972,400.547" stroke="#07863A" fill="#07863A" stroke-width="1" />
  <path id="23" d="M 638.758,556.927 C 627.256,556.220 621.222,555.351 621.379,554.424 C 621.567,553.304 619.769,551.896 618.038,551.809 C 617.191,551.767 616.203,551.300 615.782,550.742 C 615.089,549.826 615.030,549.819 615.016,550.654 C 614.992,551.987 614.144,551.245 612.176,548.168 C 609.784,544.429 608.154,539.866 607.440,534.918 C 606.589,529.017 607.649,522.898 610.539,517.024 C 612.210,513.630 613.477,511.927 616.699,508.750 C 621.135,504.375 624.556,502.399 631,500.488 C 634.229,499.531 635.480,499.416 640,499.668 C 646.653,500.036 646.315,499.950 652.266,502.817 C 663.219,508.095 670.013,518.984 669.992,531.230 C 669.984,536.792 669.043,540.947 666.773,545.454 C 664.821,549.331 659.821,555.091 658.760,554.685 C 658.386,554.541 656.998,555.028 655.676,555.765 C 652.769,557.389 649.691,557.600 638.758,556.927M 645.733,547.322 C 649.196,545.737 652.435,542.734 654.285,539.394 C 655.644,536.941 655.750,536.370 655.750,531.500 C 655.750,526.866 655.595,525.918 654.426,523.426 C 648.710,511.234 631.746,510.052 624.192,521.320 C 617.500,531.302 622.346,544.440 634.143,548.307 C 637.157,549.294 642.397,548.850 645.733,547.322" stroke="#FABA0E" fill="#FABA0E" stroke-width="1" />
  <path id="24" d="M 509,727.451 C 502.777,726.236 496.219,720.879 493.932,715.143 C 492.976,712.747 492.776,711.303 492.764,706.740 C 492.750,701.503 492.832,701.062 494.399,697.880 C 496.461,693.691 499.617,690.497 503.664,688.505 C 512.043,684.380 521.175,685.780 527.933,692.227 C 532.685,696.759 534.847,702.320 534.360,708.756 C 533.426,721.105 521.504,729.893 509,727.451M 519.221,717.793 C 527.337,713.038 527.649,701.631 519.797,696.776 C 516.801,694.924 511.880,694.443 508.894,695.710 C 504.418,697.610 501.014,702.520 501.005,707.092 C 500.986,716.230 511.425,722.362 519.221,717.793" stroke="#FDFDFD" fill="#FDFDFD" stroke-width="1" />
  <path id="63" d="M 563.315,627.348 C 563.558,626.914 565.501,625.064 567.633,623.239 C 569.764,621.413 571.390,619.726 571.245,619.490 C 571.099,619.255 571.885,618.337 572.990,617.448 C 574.096,616.559 574.907,615.740 574.793,615.625 C 574.678,615.511 574.870,614.706 575.218,613.834 C 575.566,612.962 575.776,611.301 575.684,610.141 C 575.519,608.048 574.198,605.818 573.411,606.305 C 572.699,606.745 572.965,605.273 573.817,604.056 C 576.985,600.830 571.261,605.294 571.773,604.750 C 571.773,604.750 572.980,602.750 572.980,602.750 C 573.644,601.650 574.710,599.962 575.350,599 C 575.350,599 576.514,597.250 576.514,597.250 C 576.514,597.250 575.136,596.250 575.136,596.250 C 571.818,593.840 570.390,592.168 568.655,588.656 C 567.043,585.394 566.777,584.342 566.593,580.510 C 566.359,575.595 567.020,572.849 569.649,567.840 C 573.587,560.338 583.188,556.030 591.569,558.005 C 598.081,559.539 603.755,564.121 606.488,570.049 C 607.910,573.135 608.126,574.155 608.206,578.164 C 608.267,581.245 608.019,583.693 607.451,585.624 C 605.068,593.723 598.221,599.220 589.715,599.864 C 589.715,599.864 585.939,600.149 585.939,600.149 C 585.939,600.149 584.402,603.199 584.402,603.199 C 580.518,610.905 573.859,619.428 567.890,624.331 C 563.539,627.905 562.690,628.465 563.315,627.348M 591.879,588.813 C 594.080,587.674 596.396,585.055 597.304,582.677 C 599.112,577.944 597.273,572.710 592.775,569.784 C 591.106,567.191 589.623,568.341 589.183,568.125 C 589.647,567.354 584.669,567.244 581.895,569.628 C 577.920,572.034 576.023,576.725 577.062,581.573 C 577.744,584.751 580.634,588.096 583.662,589.210 C 586.067,590.095 589.743,589.918 591.879,588.813" stroke="#18547C" fill="#18547C" stroke-width="1" />
  <path id="24" d="M 534.500,679.660 C 532.438,678.149 530.679,676.722 530.594,676.489 C 530.509,676.256 531.230,673.631 532.198,670.658 C 534.500,663.582 536.161,657.635 538.732,647.257 C 538.732,647.257 540.836,638.764 540.836,638.764 C 540.836,638.764 545.793,636.890 545.793,636.890 C 555.021,633.402 561.153,629.923 567.890,624.351 C 573.887,619.391 580.530,610.881 584.402,603.199 C 584.402,603.199 585.939,600.149 585.939,600.149 C 585.939,600.149 589.715,599.864 589.715,599.864 C 601.122,599 609.093,589.523 608.405,577.638 C 607.561,563.052 591.794,553.277 578.924,559.360 C 573.060,562.132 569.543,566.371 567.253,573.430 C 566.604,575.428 566.437,577.230 566.593,580.510 C 566.777,584.342 567.043,585.394 568.655,588.656 C 570.389,592.164 571.809,593.830 575.133,596.250 C 575.133,596.250 576.506,597.250 576.506,597.250 C 576.506,597.250 572.513,603.391 572.513,603.391 C 568.044,610.264 561.770,616.986 556.559,620.485 C 553.201,622.739 546.234,626.146 543.831,626.709 C 542.490,627.023 542.427,626.964 542.693,625.645 C 545.103,613.699 546.381,587.085 545.353,570.250 C 545.353,570.250 544.956,563.750 544.956,563.750 C 544.956,563.750 548.853,560.924 548.853,560.924 C 561.626,551.663 572.983,538.533 579.476,525.521 C 582.736,518.988 584.364,514.829 586.524,507.519 C 586.524,507.519 588.366,501.288 588.366,501.288 C 588.366,501.288 591.558,500.695 591.558,500.695 C 596.118,499.849 600.024,498.370 603.090,496.329 C 611.463,490.750 616.500,481.361 616.500,471.329 C 616.500,465.834 615.625,462.072 613.168,457 C 608.303,446.954 595.379,439.693 584.172,440.709 C 562.264,442.695 549.445,465.530 559.279,485.057 C 561.486,489.440 566.258,494.514 570.595,497.091 C 573.057,498.553 573.958,499.358 573.787,499.940 C 573.654,500.385 573.215,502.212 572.808,504 C 569.622,518.032 560.538,532.344 547.302,544.188 C 545.188,546.079 543.356,547.524 543.231,547.398 C 543.106,547.273 542.341,543.925 541.533,539.960 C 537.976,522.511 534.260,509.988 527.978,494.275 C 527.978,494.275 524.892,486.555 524.892,486.555 C 524.892,486.555 528.094,482.288 528.094,482.288 C 541.519,464.401 548.790,443.756 549.992,420.113 C 550.222,415.590 550.600,411.717 550.831,411.506 C 551.062,411.295 552.402,410.749 553.811,410.293 C 562.585,407.447 569.575,399.733 572.013,390.202 C 574.566,380.218 572.021,370.563 564.981,363.520 C 553.540,352.075 535.774,352.166 524.238,363.729 C 513.542,374.451 513.319,391.872 523.740,402.717 C 527.155,406.272 531.915,409.293 536.104,410.566 C 536.104,410.566 539.500,411.598 539.500,411.598 C 539.500,411.598 539.495,414.923 539.495,414.923 C 539.465,434.515 533.881,453.260 523.055,470.117 C 521.513,472.519 520.091,474.488 519.896,474.492 C 519.702,474.497 518.936,473.431 518.195,472.125 C 517.454,470.819 514.126,465.146 510.799,459.519 C 506.127,451.618 504.435,448.259 503.366,444.769 C 495.312,418.462 493.436,393.558 497.567,367.759 C 498.812,359.983 501.299,349.650 503.755,342.051 C 503.755,342.051 505.550,336.500 505.550,336.500 C 505.550,336.500 509.999,336.500 509.999,336.500 C 517.095,336.500 524.206,333.804 528.893,329.336 C 528.893,329.336 530.534,327.770 530.534,327.770 C 530.534,327.770 532.877,329.010 532.877,329.010 C 545.755,335.828 563.184,349.166 576.292,362.235 C 591.294,377.193 601.663,391.542 610.986,410.250 C 624.162,436.687 630.885,462.800 631.843,491.252 C 631.843,491.252 632.146,500.253 632.146,500.253 C 632.146,500.253 629.739,500.897 629.739,500.897 C 621.956,502.979 614.277,509.429 610.539,517.024 C 604.832,528.623 606.424,541.456 614.869,551.899 C 616.995,554.529 620.720,557.356 624.875,559.494 C 626.594,560.378 628,561.229 628,561.385 C 628,561.540 627.197,564.837 626.215,568.709 C 619.895,593.635 609.506,614.860 593.486,635.571 C 586.842,644.161 580.520,650.686 578.156,651.394 C 575.481,652.196 572.090,655.795 571.072,658.914 C 570.306,661.260 569.827,661.748 564,666.125 C 554.099,673.562 540.038,682.617 538.643,682.455 C 538.427,682.429 536.562,681.172 534.500,679.660" stroke="#FDFDFD" fill="#FDFDFD" stroke-width="1" />
  <path id="24" d="M 419.849,402.308 C 413.567,399.968 409.905,394.647 409.863,387.798 C 409.825,381.752 412.894,376.854 418.420,374.140 C 420.798,372.972 421.888,372.750 425.250,372.750 C 428.750,372.750 429.585,372.935 431.930,374.234 C 436.965,377.023 440,382.173 440,387.930 C 440,393.695 436.918,398.748 431.812,401.356 C 428.671,402.959 422.844,403.423 419.849,402.308" stroke="#FDFDFD" fill="#FDFDFD" stroke-width="1" />
  <path id="15" d="M 503,611.230 C 499.175,609.519 496.173,605.367 495.668,601.091 C 494.837,594.051 500.649,587.524 507.750,587.523 C 511.482,587.521 514.153,588.682 516.554,591.345 C 521.915,597.292 520.848,606.173 514.285,610.231 C 512.271,611.476 511.229,611.762 508.298,611.875 C 505.896,611.968 504.185,611.760 503,611.230" stroke="#13437C" fill="#13437C" stroke-width="1" />
  <path id="6" d="M 454.536,487.756 C 446.884,486.019 439.406,480.800 434.591,473.834 C 430.060,467.279 427.795,460.673 426.250,449.500 C 425.507,444.135 424.354,421.504 424.800,421.041 C 424.910,420.927 427.925,420.815 431.500,420.791 C 436.503,420.760 438,420.899 438,421.397 C 438,421.752 437.624,425.240 437.164,429.147 C 436.088,438.303 436.087,451.935 437.161,456.776 C 439.582,467.673 444.043,474.200 451.438,477.663 C 457.839,480.660 466.465,479.957 472.396,475.954 C 473.580,475.154 474.985,474.500 475.515,474.500 C 476.488,474.500 485.384,477.897 488.132,479.318 C 488.947,479.740 489.421,480.259 489.183,480.471 C 488.305,481.253 477.608,485.479 473.250,486.765 C 467.614,488.428 459.411,488.863 454.536,487.756" stroke="#106F5E" fill="#106F5E" stroke-width="1" />
  <path id="24" d="M 583.662,589.210 C 580.626,588.093 577.745,584.752 577.059,581.557 C 575.928,576.280 578.174,571.467 582.832,569.188 C 587.069,567.115 591.382,567.955 594.882,571.535 C 598.066,574.792 598.895,579.250 597.061,583.250 C 594.626,588.556 588.858,591.121 583.662,589.210" stroke="#FDFDFD" fill="#FDFDFD" stroke-width="1" />
  <path id="15" d="M 592.275,657.080 C 591.831,655.680 587.320,651.599 585.793,651.216 C 585.169,650.734 581.687,649.136 581.505,649.422 C 581.505,649.422 585.494,645.086 585.494,645.086 C 598.294,631.174 609.734,613.212 617.495,594.840 C 619.822,589.330 620.263,588.592 620.633,589.590 C 620.924,590.375 620.833,591.154 620.350,592 C 619.957,592.688 619.489,593.869 619.308,594.625 C 619.034,595.779 619.143,596 619.990,596 C 620.970,596 621.249,595.331 624.165,593.070 C 625.159,592.245 626.500,592.896 626.500,594.203 C 626.500,594.807 626.755,595.556 627.067,595.867 C 627.491,596.291 627.236,596.939 626.064,598.418 C 625.107,599.627 624.614,600.714 624.801,601.201 C 624.969,601.640 624.858,602 624.553,602 C 623.519,602 623.995,602.782 625.625,603.755 C 626.519,604.289 627.531,604.665 627.875,604.591 C 628.932,604.363 628.608,605.299 625.473,611.553 C 619.577,623.315 611.213,636.389 603.275,646.250 C 599.412,651.049 593.566,657.650 592.954,657.903 C 592.751,657.986 592.446,657.616 592.275,657.080" stroke="#13437C" fill="#13437C" stroke-width="1" />
  <path id="24" d="M 376.611,492.797 C 375.159,492.434 372.887,491.397 371.562,490.493 C 363.124,484.735 362.707,471.552 370.768,465.405 C 377.358,460.380 386.546,461.257 392.101,467.442 C 402.260,478.753 391.417,496.500 376.611,492.797" stroke="#FDFDFD" fill="#FDFDFD" stroke-width="1" />
  <path id="24" d="M 447.450,339.108 C 445.281,337.975 444.517,337.207 443.346,334.983 C 442.127,332.668 441.951,331.868 442.195,329.753 C 442.562,326.559 444.547,323.704 447.500,322.120 C 453.868,318.707 461.375,324.036 460.876,331.618 C 460.647,335.086 458.868,337.649 455.490,339.375 C 452.588,340.858 450.678,340.795 447.450,339.108" stroke="#FDFDFD" fill="#FDFDFD" stroke-width="1" />
  <path id="63" d="M 502.375,567.391 C 501.894,566.789 501.500,566.125 501.500,565.914 C 499.368,567.730 501.621,561.528 500.289,563.375 C 499.844,564.779 497.406,564.606 496.757,563.125 C 495.634,561.347 493.464,557.633 492.082,557.488 C 492.212,556.602 491.925,556.234 490.817,555.861 C 488.957,556.388 486.935,555.352 486.540,555.436 C 486.301,555.822 485.057,554.616 483.021,552.027 C 481.289,549.823 479.640,548.163 479.358,548.337 C 479.077,548.512 478.990,548.420 479.167,548.134 C 479.517,547.568 478.372,546.385 477.678,546.593 C 477.442,546.664 473.650,543.106 469.250,538.688 C 455.306,524.685 440.320,513.930 421.872,504.686 C 414.740,501.113 405.036,497 403.734,497 C 403.279,497 401.524,498.252 399.833,499.782 C 396.391,502.897 392.060,505.171 387.681,506.161 C 387.681,506.161 384.750,506.824 384.750,506.824 C 384.750,506.824 384.450,509.037 384.450,509.037 C 384.285,510.254 384.090,511.025 384.016,510.750 C 383.803,509.957 383.124,513.061 383.059,515.125 C 383.026,516.156 383.225,517 383.500,517 C 383.815,517 383.964,519.726 383.902,524.375 C 383.837,529.229 383.724,530.553 383.569,528.250 C 383.569,528.250 383.334,524.750 383.334,524.750 C 383.334,524.750 382.792,530.243 382.792,530.243 C 382.792,530.243 382.250,535.736 382.250,535.736 C 382.250,535.736 380.878,534.251 380.878,534.251 C 380.081,533.389 379.616,532.423 379.767,531.946 C 376.524,523.585 381.327,523.585 375.050,522.842 C 374.291,523.040 374.165,522.754 374.204,520.921 C 374.237,519.378 374.049,518.764 373.541,518.759 C 370.873,516.794 375.100,516.794 372.788,516.221 C 371.591,516.352 371.570,516.281 371.210,511.052 C 371.210,511.052 370.846,505.750 370.846,505.750 C 370.846,505.750 367.048,503.904 367.048,503.904 C 352.891,497.025 347.075,479.249 354.226,464.715 C 360.192,452.591 374.913,445.846 388,449.241 C 392.735,450.469 396.764,452.796 400.827,456.646 C 407.164,462.652 410.265,470.495 409.917,479.635 C 409.917,479.635 409.750,484.019 409.750,484.019 C 409.750,484.019 415.988,486.531 415.988,486.531 C 439.360,495.943 460.882,510.257 479.021,528.453 C 488.894,538.357 497.685,549.562 494.838,548.612 C 494.322,548.441 494.728,549.150 496.776,552 C 498.659,554.622 505,566.817 505,567.818 C 505,568.878 503.348,568.609 502.375,567.391M 386.811,492.014 C 392.169,489.671 395.997,483.835 396.002,478 C 396.006,473.757 394.772,470.415 392.101,467.442 C 386.546,461.257 377.358,460.380 370.768,465.405 C 364.534,470.159 363.084,479.850 367.601,486.549 C 371.623,492.512 380.134,494.933 386.811,492.014" stroke="#18547C" fill="#18547C" stroke-width="1" />
  <path id="24" d="M 634.143,548.307 C 622.346,544.440 617.500,531.302 624.192,521.320 C 631.746,510.052 648.710,511.234 654.426,523.426 C 655.595,525.918 655.750,526.866 655.750,531.500 C 655.750,536.370 655.644,536.941 654.285,539.394 C 652.435,542.734 649.196,545.737 645.733,547.322 C 642.397,548.850 637.157,549.294 634.143,548.307" stroke="#FDFDFD" fill="#FDFDFD" stroke-width="1" />
  <path id="24" d="M 582.040,487.233 C 578.575,486.267 576.637,485.053 574.016,482.209 C 570.812,478.734 569.797,476.052 569.771,471 C 569.753,467.339 569.942,466.358 571.140,463.920 C 572.746,460.649 575.353,458.111 579.107,456.163 C 581.402,454.973 582.343,454.789 586.250,454.771 C 590.448,454.752 590.962,454.865 593.917,456.467 C 597.409,458.361 599.886,461.039 601.614,464.790 C 602.514,466.745 602.745,468.123 602.736,471.500 C 602.725,475.371 602.572,476.033 601.020,478.917 C 600.065,480.692 598.380,482.851 597.186,483.829 C 593.027,487.238 586.950,488.603 582.040,487.233" stroke="#FDFDFD" fill="#FDFDFD" stroke-width="1" />
  <path id="67" d="M 644,499.921 C 642.763,499.662 639.589,499.524 636.948,499.615 C 636.948,499.615 632.148,499.779 632.148,499.779 C 632.148,499.779 631.842,491.014 631.842,491.014 C 631.328,476.289 629.484,463.513 625.923,450 C 623.039,439.062 623.062,439.332 625.222,441.750 C 626.205,442.850 627.810,445.212 628.789,447 C 630.716,450.516 634.562,454.500 636.029,454.500 C 639.314,456.399 639.314,453.339 639.914,452.172 C 639.817,451.099 639.989,450.262 640.329,450.146 C 641.205,449.846 643.473,460.827 645.259,474 C 645.965,479.213 646.927,500.577 646.449,500.445 C 646.340,500.415 645.237,500.179 644,499.921" stroke="#177851" fill="#177851" stroke-width="1" />
  <path id="63" d="M 530.771,564.034 C 530.298,563.269 529.788,556.182 530.236,556.596 C 530.612,556.945 531.548,564.114 531.256,564.409 C 531.170,564.495 530.952,564.327 530.771,564.034" stroke="#18547C" fill="#18547C" stroke-width="1" />
  <path id="64" d="M 577.130,672.486 C 574.871,671.578 571.598,667.701 570.789,664.976 C 570.083,662.598 570.086,662.110 570.817,659.594 C 571.793,656.237 575.201,652.335 577.922,651.458 C 578.927,651.134 579.972,650.740 580.243,650.582 C 581.019,650.131 584.081,650.524 586,651.322 C 588.021,652.162 591.260,655.136 592.291,657.100 C 593.124,658.687 593.226,663.332 592.472,665.342 C 590.664,670.163 586.466,673.023 581.277,672.968 C 579.612,672.951 577.745,672.734 577.130,672.486" stroke="#EE9419" fill="#EE9419" stroke-width="1" />
  <path id="24" d="M 440.643,605.307 C 435.413,603.592 430.436,599.146 428.112,594.110 C 426.954,591.602 426.791,590.604 426.781,586 C 426.770,581.232 426.899,580.481 428.193,577.827 C 430.118,573.877 434.328,569.767 438.445,567.816 C 441.430,566.402 442.211,566.250 446.500,566.254 C 450.794,566.257 451.572,566.409 454.611,567.846 C 458.408,569.640 462.489,573.200 464.308,576.303 C 466.239,579.598 467.182,585.045 466.500,588.965 C 465.294,595.886 461.681,600.867 455.732,603.808 C 452.428,605.441 451.529,605.657 447.389,605.817 C 444.337,605.936 442.029,605.761 440.643,605.307M 451.126,597.787 C 453.885,596.802 456.298,594.773 457.842,592.139 C 461.381,586.100 458.042,577.317 451.216,574.711 C 445.847,572.660 439.272,574.857 436.276,579.703 C 434.214,583.039 433.880,587.904 435.486,591.222 C 436.764,593.861 440.250,597.116 442.608,597.871 C 444.925,598.614 448.918,598.574 451.126,597.787" stroke="#FDFDFD" fill="#FDFDFD" stroke-width="1" />
  <path id="15" d="M 559.273,629.375 C 559.460,628.756 560.149,627.675 560.806,626.972 C 561.462,626.270 562,625.454 562,625.159 C 566.311,621.172 557.392,619.803 562,619.043 C 562,618.554 562.456,617.743 563.012,617.240 C 563.666,616.648 563.852,616.152 563.538,615.838 C 563.225,615.525 564.112,614.186 566.048,612.052 C 567.695,610.236 569.626,607.837 570.338,606.721 C 571.051,605.605 572.288,604.316 573.770,604.123 C 572.955,605.287 572.717,606.734 573.411,606.305 C 574.198,605.818 575.519,608.048 575.684,610.141 C 575.776,611.301 575.566,612.962 575.218,613.834 C 574.870,614.706 574.678,615.511 574.793,615.625 C 574.907,615.740 574.096,616.559 572.990,617.448 C 571.885,618.337 571.101,619.259 571.247,619.496 C 571.394,619.735 569.710,621.465 567.502,623.340 C 565.294,625.216 563.378,627.087 563.242,627.500 C 563.018,628.183 559.914,630.500 559.223,630.500 C 559.063,630.500 559.086,629.994 559.273,629.375" stroke="#13437C" fill="#13437C" stroke-width="1" />
  <path id="64" d="M 510.054,716.381 C 509.833,715.784 508.902,715.058 507.954,714.744 C 507.017,714.434 506.028,713.689 505.757,713.090 C 505.485,712.490 504.985,712 504.644,712 C 504.305,712 503.676,711.325 503.250,710.500 C 502.427,708.909 501.745,708.598 501.331,709.625 C 501.192,709.969 501.063,709.013 501.045,707.500 C 500.982,702.537 504.200,697.702 508.894,695.710 C 510.151,695.177 511.818,694.980 514.059,695.099 C 520.563,695.446 525.053,699.933 525.404,706.441 C 525.581,709.724 525.565,709.769 523.452,712.144 C 520.678,715.261 517.105,717.082 513.351,717.293 C 510.764,717.437 510.408,717.338 510.054,716.381" stroke="#EE9419" fill="#EE9419" stroke-width="1" />
  <path id="24" d="M 538.639,400.458 C 534.664,399.199 530.151,395.181 528.176,391.143 C 526.410,387.535 525.984,381.532 527.196,377.363 C 530.168,367.139 542.648,361.989 552.591,366.884 C 556.507,368.812 559.086,371.499 561.040,375.688 C 564.698,383.529 562.523,392.431 555.687,397.592 C 550.737,401.329 544.628,402.356 538.639,400.458M 548.891,393.724 C 551.349,392.700 553.903,390.221 555.050,387.750 C 557.509,382.450 554.871,375.791 549.280,373.188 C 545.924,371.625 542.899,371.649 539.654,373.267 C 533.241,376.462 531.640,384.979 536.406,390.547 C 539.543,394.212 544.624,395.505 548.891,393.724" stroke="#FDFDFD" fill="#FDFDFD" stroke-width="1" />
  <path id="18" d="M 540.222,393.557 C 537.574,392.354 534.783,389.046 533.972,386.151 C 533.149,383.212 533.912,379.152 535.798,376.430 C 537.486,373.995 541.399,371.998 544.473,372.005 C 552.446,372.022 558.303,380.740 555.050,387.750 C 552.428,393.400 545.688,396.040 540.222,393.557" stroke="#F8BC10" fill="#F8BC10" stroke-width="1" />
  <path id="37" d="M 541.969,612.474 C 541.013,611.750 540.750,611.093 540.750,609.426 C 540.750,607.573 540.589,607.260 539.500,606.990 C 538.764,606.808 538.277,606.348 538.314,605.870 C 538.350,605.425 537.843,604.558 537.189,603.943 C 535.009,600.625 536.396,605.554 534.174,603.625 C 533.394,602.566 533.081,601.106 532.813,597.269 C 532.621,594.529 532.282,592.166 532.058,592.019 C 531.834,591.870 531.523,585.788 531.367,578.500 C 531.208,571.106 531.270,565.692 531.506,566.250 C 531.740,566.800 531.946,568.530 531.965,570.096 C 531.985,571.660 532.225,573.080 532.500,573.250 C 533.537,576.544 534.735,577.962 534.061,578.775 C 534.788,579.503 535.532,579.638 537.625,579.423 C 537.867,579.413 535.648,575.684 537.935,577.098 C 538.985,577.833 541.704,581.500 541.199,581.500 C 541.849,581.299 542.159,585.141 542.287,585.030 C 542.788,585.447 543.009,586.215 542.879,587.096 C 542.765,587.869 542.810,588.500 542.977,588.500 C 543.298,588.500 543.634,590.505 543.619,592.338 C 544.363,594.639 545.020,591.415 545.073,591.705 C 545.521,591.428 545.585,593.305 545.338,599.545 C 544.802,613.143 544.480,614.374 541.969,612.474" stroke="#174A80" fill="#174A80" stroke-width="1" />
  <path id="37" d="M 583.673,567.870 C 584.332,567.436 590.196,567.503 590.924,567.953 C 591.188,568.116 589.535,568.250 587.250,568.250 C 584.965,568.250 583.355,568.078 583.673,567.870" stroke="#174A80" fill="#174A80" stroke-width="1" />
  <path id="37" d="M 544.821,577.125 C 544.361,574.340 544.435,572.099 545,571.750 C 545.317,571.554 545.500,572.828 545.500,575.221 C 545.500,577.299 545.417,579 545.316,579 C 545.214,579 544.991,578.156 544.821,577.125" stroke="#174A80" fill="#174A80" stroke-width="1" />
  <path id="64" d="M 442.608,597.871 C 440.250,597.116 436.764,593.861 435.486,591.222 C 433.880,587.904 434.214,583.039 436.276,579.703 C 440.301,573.193 449.736,571.994 455.198,577.298 C 458.024,580.043 459.178,582.710 459.193,586.530 C 459.204,589.215 458.959,590.234 457.842,592.139 C 454.791,597.344 448.430,599.737 442.608,597.871" stroke="#EE9419" fill="#EE9419" stroke-width="1" />
  <path id="28" d="M 417.284,416.234 C 414.031,415.341 408.848,412.685 407.445,411.192 C 405.834,409.478 406.914,409.719 410.861,411.955 C 412.759,413.031 415.275,414.170 416.452,414.487 C 418.297,414.983 418.677,414.949 419.197,414.238 C 419.692,413.560 420.423,413.459 423.275,413.668 C 425.186,413.808 426.830,413.940 426.928,413.962 C 427.026,413.983 426.986,414.315 426.838,414.700 C 426.548,415.455 428.318,416.199 428.748,415.503 C 428.885,415.281 429.729,415.097 430.623,415.093 C 432.735,415.084 434.208,414.492 438.291,412.012 C 441.745,409.913 442.854,409.726 441.235,411.517 C 439.930,412.959 434.744,415.337 430.956,416.229 C 427.056,417.149 420.625,417.151 417.284,416.234" stroke="#136F4B" fill="#136F4B" stroke-width="1" />
  <path id="34" d="M 509.941,718.840 C 505.550,717.198 501.500,713.035 501.500,710.164 C 501.500,708.551 502.324,708.709 503.250,710.500 C 503.676,711.325 504.305,712 504.644,712 C 504.985,712 505.485,712.490 505.757,713.090 C 506.028,713.689 507.017,714.434 507.954,714.744 C 508.902,715.058 509.833,715.784 510.054,716.381 C 510.408,717.338 510.764,717.437 513.351,717.293 C 516.904,717.093 520.928,715.163 522.875,712.724 C 524.702,710.434 525.256,710.537 524.032,712.937 C 521.520,717.860 514.823,720.665 509.941,718.840" stroke="#EF7E1B" fill="#EF7E1B" stroke-width="1" />
  <path id="37" d="M 383.334,550.667 C 383.150,550.483 383,549.680 383,548.881 C 383,547.403 382.029,546 380.356,545 C 379.385,545 376.500,543.518 374.534,541.750 C 374.378,541.200 373.982,540.300 371.238,538.340 C 371.041,537.026 370.534,535.606 370.112,535.183 C 369.445,534.517 369.384,532.667 369.640,521.083 C 369.973,506.108 370.632,501.807 371.216,510.813 C 371.571,516.296 371.587,516.352 372.788,516.221 C 375.919,516.657 371.265,518.639 373.541,518.759 C 374.049,518.764 374.237,519.378 374.204,520.921 C 374.165,522.754 374.291,523.040 375.050,522.842 C 383.139,525.254 376.370,531.062 379.767,531.946 C 379.616,532.423 380.081,533.389 380.878,534.251 C 380.878,534.251 382.250,535.736 382.250,535.736 C 382.250,535.736 382.750,530.243 382.750,530.243 C 382.750,530.243 383.251,524.750 383.251,524.750 C 383.251,524.750 383.910,533 383.910,533 C 384.272,537.538 384.861,543.163 385.216,545.500 C 385.646,548.317 385.697,549.961 385.370,550.375 C 384.834,551.056 383.861,551.194 383.334,550.667" stroke="#174A80" fill="#174A80" stroke-width="1" />
  <path id="37" d="M 490.291,564.585 C 487.423,560.276 483.389,554.612 481.327,552 C 479.265,549.388 477.094,546.631 476.501,545.875 C 479.188,541.288 479.188,549.817 479.358,548.337 C 479.640,548.163 481.289,549.823 483.021,552.027 C 485.057,554.616 486.301,555.822 486.540,555.436 C 487.365,555.616 490.046,556.201 490.817,555.861 C 491.925,556.234 492.212,556.602 492.082,557.488 C 495.882,558.077 495.882,562.167 496.757,563.125 C 497.406,564.606 499.844,564.779 500.289,563.375 C 501.364,562.249 500.471,568.056 502.433,567.423 C 503.478,568.629 505,568.863 505,567.818 C 505,566.817 498.659,554.622 496.776,552 C 494.529,548.873 494.440,548.667 495.337,548.667 C 496.374,548.667 500.643,555.271 504.191,562.366 C 506.644,567.270 507.464,569.500 506.817,569.500 C 506.716,569.500 504.130,570.157 501.070,570.960 C 501.070,570.960 495.506,572.419 495.506,572.419 C 495.506,572.419 490.291,564.585 490.291,564.585" stroke="#174A80" fill="#174A80" stroke-width="1" />
  <path id="54" d="M 581,650 C 581,649.403 582.361,649.403 583.750,650 C 584.552,650.345 584.379,650.437 582.875,650.465 C 581.844,650.485 581,650.275 581,650" stroke="#002A71" fill="#002A71" stroke-width="1" />
  <path id="67" d="M 610.314,463.553 C 610.543,462.413 610.396,462.089 609.548,461.868 C 608.274,461.535 608.192,460.168 609.368,458.870 C 606.679,454.590 606.679,454.590 605.030,454.348 C 604.480,454.491 603.160,453.365 601.101,450.997 C 599.395,449.034 598,447.207 598,446.935 C 598.581,446.730 595.297,446.308 596.968,446.007 C 597.638,446.003 598.663,445.551 599.248,445.002 C 599.248,445.002 600.311,444.004 600.311,444.004 C 600.311,444.004 602.751,445.552 602.751,445.552 C 606.860,448.158 611.134,452.853 613.187,457.015 C 614.933,460.557 615.003,460.877 614.364,462.399 C 613.701,463.974 612.770,464.180 613.370,462.619 C 613.568,462.102 613.471,461.959 613.085,462.197 C 612.764,462.397 612.500,462.847 612.500,463.199 C 612.500,463.551 611.944,464.092 611.266,464.401 C 610.089,464.938 610.045,464.899 610.314,463.553" stroke="#177851" fill="#177851" stroke-width="1" />
  <path id="66" d="M 470.702,416.807 C 470.533,416.363 470.034,416 469.596,416 C 469.008,416 468.947,415.853 469.361,415.439 C 470.394,414.406 469.551,413.719 467.494,413.915 C 465.952,414.062 465.433,413.909 465.173,413.230 C 465.909,412.086 466.127,409.099 464.740,410.009 C 464.274,410.396 463.612,409.966 462.180,408.345 C 461.118,407.143 459.746,405.892 458.630,402.023 C 457.241,399.798 459.108,400.803 463.783,404.798 C 466.515,407.132 468.691,409.341 470,412.365 C 470,412.772 470.562,413.548 471.250,414.089 C 472.675,415.210 472.830,416.103 471.756,416.995 C 471.154,417.495 470.953,417.459 470.702,416.807" stroke="#07863A" fill="#07863A" stroke-width="1" />
  <path id="64" d="M 637,562.453 C 630.431,562.076 629.069,561.751 625.014,559.596 C 618.808,556.296 614.451,552.547 614.886,550.881 C 615.148,549.882 615.175,549.880 615.843,550.793 C 616.221,551.311 617.210,551.768 618.038,551.809 C 619.769,551.896 621.567,553.304 621.379,554.424 C 621.211,555.423 627.328,556.222 640.250,556.887 C 652.096,557.497 652.413,557.473 655.740,555.732 C 657.242,554.947 658.646,554.481 658.861,554.697 C 659.951,555.795 651.034,560.638 646.190,561.578 C 644.573,561.892 643.025,562.285 642.750,562.452 C 642.475,562.618 639.888,562.619 637,562.453" stroke="#EE9419" fill="#EE9419" stroke-width="1" />
  <path id="63" d="M 406.108,548.396 C 403.767,547.611 400.262,544.356 399.042,541.837 C 396.882,537.374 398.070,531.446 401.817,527.991 C 405.644,524.464 409.695,523.404 414.270,524.735 C 424.288,527.646 426.176,541.735 417.286,547.231 C 415.247,548.491 414.265,548.755 411.298,548.843 C 409.346,548.900 407.011,548.699 406.108,548.396" stroke="#18547C" fill="#18547C" stroke-width="1" />
  <path id="37" d="M 383.059,515.125 C 383.091,514.094 383.290,512.575 383.500,511.750 C 383.795,510.591 383.896,511.017 383.941,513.625 C 383.976,515.581 383.790,517 383.500,517 C 383.225,517 383.026,516.156 383.059,515.125" stroke="#174A80" fill="#174A80" stroke-width="1" />
  <path id="24" d="M 507.172,322.479 C 502.344,321.524 497.830,318.041 495.640,313.580 C 494.430,311.118 494.251,310.166 494.257,306.250 C 494.264,300.837 495.329,298.207 498.812,294.996 C 502.255,291.823 504.990,290.764 509.750,290.765 C 513.182,290.765 514.165,290.974 516.673,292.237 C 526.462,297.166 528.958,310.046 521.601,317.666 C 519.034,320.324 516.266,321.829 512.783,322.462 C 511.151,322.757 509.688,322.975 509.533,322.945 C 509.377,322.915 508.315,322.705 507.172,322.479" stroke="#FDFDFD" fill="#FDFDFD" stroke-width="1" />
  <path id="23" d="M 457.515,472.971 C 454.972,471.901 452.849,469.791 451.625,467.118 C 448.863,461.085 451.563,454.116 457.450,452.086 C 461.266,450.770 465.764,451.855 468.671,454.793 C 471.043,457.189 471.712,458.938 471.732,462.784 C 471.748,465.822 471.556,466.611 470.370,468.405 C 468.269,471.584 465.505,473.182 461.817,473.350 C 460.130,473.427 458.195,473.257 457.515,472.971" stroke="#FABA0E" fill="#FABA0E" stroke-width="1" />
  <path id="15" d="M 474.500,597.968 C 473.262,596.888 471.856,596.002 471.375,596.001 C 470.894,596.001 470.500,595.783 470.500,595.518 C 470.500,594.920 472.262,593.939 473.012,594.118 C 473.335,594.196 473.647,593.268 473.767,591.875 C 473.988,589.288 473.558,588.943 472.083,590.526 C 471.221,591.452 471.096,591.470 470.805,590.712 C 470.342,589.506 471.387,588.500 473.103,588.500 C 473.103,580.471 465.391,580.471 466.351,579.500 C 465.993,579.500 465.414,578.708 465.064,577.740 C 463.958,574.681 459.334,570.220 455.099,568.126 C 451.512,566.354 451.038,566.250 446.526,566.250 C 442.212,566.250 441.431,566.401 438.445,567.816 C 432.051,570.846 427.338,577.124 426.671,583.499 C 426.486,585.274 426.135,586.462 425.829,586.360 C 425.003,586.085 424.514,583.537 424.836,581.191 C 425.086,579.365 424.935,578.817 423.815,577.486 C 423.091,576.626 422.500,575.504 422.500,574.991 C 420.710,571.304 420.710,571.304 420.268,569.375 C 420.459,568.481 420.805,567.514 421.037,567.224 C 421.269,566.934 421.339,566.244 421.195,565.689 C 420.548,563.216 431.075,555.793 438,553.838 C 451.403,550.056 466.774,556.003 474.800,568.076 C 478.312,573.360 479.620,577.577 479.890,584.504 C 480.079,589.346 479.940,590.905 479.012,594.346 C 477.432,600.201 477.236,600.359 474.500,597.968" stroke="#13437C" fill="#13437C" stroke-width="1" />
</g></svg>